<svg xmlns="http://www.w3.org/2000/svg" viewBox="0 0 120 120" width="240" height="240" shape-rendering="crispEdges">
  <rect width="120" height="120" fill="#fff"/>
  <rect x="8" y="8" width="32" height="32" fill="#000"/>
  <rect x="16" y="16" width="16" height="16" fill="#fff"/>
  <rect x="80" y="8" width="32" height="32" fill="#000"/>
  <rect x="88" y="16" width="16" height="16" fill="#fff"/>
  <rect x="8" y="80" width="32" height="32" fill="#000"/>
  <rect x="16" y="88" width="16" height="16" fill="#fff"/>
  <rect x="42" y="42" width="10" height="10" fill="#000"/>
  <rect x="56" y="42" width="4" height="4" fill="#000"/>
  <rect x="70" y="42" width="4" height="4" fill="#000"/>
  <rect x="42" y="56" width="4" height="4" fill="#000"/>
  <rect x="56" y="56" width="10" height="10" fill="#000"/>
  <rect x="70" y="56" width="4" height="4" fill="#000"/>
  <rect x="42" y="70" width="4" height="4" fill="#000"/>
  <rect x="56" y="70" width="4" height="4" fill="#000"/>
  <rect x="84" y="42" width="4" height="10" fill="#000"/>
  <rect x="42" y="84" width="10" height="4" fill="#000"/>
  <rect x="62" y="84" width="4" height="4" fill="#000"/>
  <rect x="84" y="84" width="4" height="4" fill="#000"/>
  <rect x="14" y="60" width="8" height="8" fill="#000"/>
  <rect x="24" y="60" width="4" height="4" fill="#000"/>
  <rect x="60" y="14" width="8" height="8" fill="#000"/>
  <rect x="68" y="24" width="4" height="4" fill="#000"/>
</svg>
